<?xml version="1.0" standalone="no"?>
<svg xmlns:xlink="http://www.w3.org/1999/xlink" id="wave" style="transform:rotate(180deg); transition: 0.3s" viewBox="0 0 1440 100" version="1.1" xmlns="http://www.w3.org/2000/svg"><defs><linearGradient id="sw-gradient-0" x1="0" x2="0" y1="1" y2="0"><stop stop-color="rgba(250, 235, 215, 1)" offset="0%"/><stop stop-color="rgba(250, 235, 215, 1)" offset="100%"/></linearGradient></defs><path style="transform:translate(0, 0px); opacity:1" fill="url(#sw-gradient-0)" d="M0,90L34.3,83.3C68.6,77,137,63,206,55C274.3,47,343,43,411,36.7C480,30,549,20,617,23.3C685.7,27,754,43,823,53.3C891.4,63,960,67,1029,71.7C1097.1,77,1166,83,1234,76.7C1302.9,70,1371,50,1440,36.7C1508.6,23,1577,17,1646,13.3C1714.3,10,1783,10,1851,18.3C1920,27,1989,43,2057,55C2125.7,67,2194,73,2263,75C2331.4,77,2400,73,2469,65C2537.1,57,2606,43,2674,31.7C2742.9,20,2811,10,2880,10C2948.6,10,3017,20,3086,25C3154.3,30,3223,30,3291,35C3360,40,3429,50,3497,53.3C3565.7,57,3634,53,3703,50C3771.4,47,3840,43,3909,50C3977.1,57,4046,73,4114,80C4182.9,87,4251,83,4320,71.7C4388.6,60,4457,40,4526,36.7C4594.3,33,4663,47,4731,51.7C4800,57,4869,53,4903,51.7L4937.1,50L4937.1,100L4902.9,100C4868.6,100,4800,100,4731,100C4662.9,100,4594,100,4526,100C4457.1,100,4389,100,4320,100C4251.4,100,4183,100,4114,100C4045.7,100,3977,100,3909,100C3840,100,3771,100,3703,100C3634.3,100,3566,100,3497,100C3428.6,100,3360,100,3291,100C3222.9,100,3154,100,3086,100C3017.1,100,2949,100,2880,100C2811.4,100,2743,100,2674,100C2605.7,100,2537,100,2469,100C2400,100,2331,100,2263,100C2194.3,100,2126,100,2057,100C1988.6,100,1920,100,1851,100C1782.9,100,1714,100,1646,100C1577.1,100,1509,100,1440,100C1371.4,100,1303,100,1234,100C1165.7,100,1097,100,1029,100C960,100,891,100,823,100C754.3,100,686,100,617,100C548.6,100,480,100,411,100C342.9,100,274,100,206,100C137.1,100,69,100,34,100L0,100Z"/></svg>